<svg width="96" height="103" viewBox="0 0 96 103" fill="none" xmlns="http://www.w3.org/2000/svg">
<path d="M48 55L47.0019 55.0621L48.9979 55.0649L48 55ZM48 55C47.0019 55.0621 47.0019 55.0618 47.0019 55.0613L47.0017 55.0594L47.0013 55.0522L46.9996 55.0245L46.9932 54.9167C46.9877 54.8221 46.9797 54.6822 46.9698 54.5003C46.95 54.1364 46.9226 53.604 46.8919 52.9279C46.8306 51.5757 46.7563 49.6477 46.7041 47.3415C46.5997 42.7317 46.5832 36.5982 46.9375 30.525C46.9671 30.0166 46.9994 29.5081 47.0345 29.0004C46.6686 23.5651 45.9823 18.3689 44.7846 14.5476C44.1233 12.4375 43.3356 10.8463 42.439 9.85921C41.5818 8.91553 40.6732 8.5619 39.6054 8.75574C28.0641 10.8508 17.7234 17.1857 10.6146 26.5161C3.50581 35.8464 0.142838 47.4977 1.18632 59.1811C2.2298 70.8644 7.60431 81.7354 16.254 89.6582C24.9038 97.5811 36.2035 101.983 47.9333 102C59.6632 102.017 70.9753 97.6465 79.6475 89.7482C88.3196 81.8498 93.725 70.9942 94.8016 59.3138C95.8782 47.6335 92.5483 35.9727 85.466 26.6222C78.3837 17.2718 68.061 10.9075 56.5257 8.77973C55.4585 8.58287 54.5488 8.93392 53.6889 9.87516C52.7895 10.8597 51.9973 12.4487 51.33 14.5569C50.1216 18.3748 49.4205 23.569 49.0392 29.0032C49.0728 29.511 49.1037 30.0196 49.1319 30.5281C49.4689 36.6023 49.4351 42.7357 49.3176 47.3452C49.2588 49.6513 49.179 51.579 49.1139 52.931C49.0813 53.6071 49.0524 54.1394 49.0316 54.5032C49.0211 54.6851 49.0128 54.825 49.007 54.9196L49.0003 55.0273L48.9985 55.055L48.998 55.0622L48.9979 55.0641C48.9979 55.0646 48.9979 55.0649 48 55Z" fill="#EA881A" stroke="#00923E" stroke-width="2"/>
<path d="M91 55.2222C91 66.2286 86.5223 76.7843 78.552 84.5671C70.5817 92.3499 59.7717 96.7222 48.5 96.7222C37.2283 96.7222 26.4183 92.3499 18.448 84.5671C10.4777 76.7843 6 66.2287 6 55.2222C6 55.2222 18.9514 55.2222 27.25 55.2222C45.5 55.2222 48.5 65.2222 48.5 65.2222C48.5 65.2222 49 55.722 69.75 55.2222C90.5 54.7223 91 55.2222 91 55.2222Z" fill="#D9D9D9"/>
<path d="M91 55.2222C91 66.2286 86.5223 76.7843 78.552 84.5671C70.5817 92.3499 59.7717 96.7222 48.5 96.7222C37.2283 96.7222 26.4183 92.3499 18.448 84.5671C10.4777 76.7843 6 66.2287 6 55.2222C6 55.2222 18.9514 55.2222 27.25 55.2222C45.5 55.2222 48.5 65.2222 48.5 65.2222C48.5 65.2222 49 55.722 69.75 55.2222C90.5 54.7223 91 55.2222 91 55.2222Z" fill="#D9D9D9"/>
<path d="M91 55.2222C91 66.2286 86.5223 76.7843 78.552 84.5671C70.5817 92.3499 59.7717 96.7222 48.5 96.7222C37.2283 96.7222 26.4183 92.3499 18.448 84.5671C10.4777 76.7843 6 66.2287 6 55.2222C6 55.2222 18.9514 55.2222 27.25 55.2222C45.5 55.2222 48.5 65.2222 48.5 65.2222C48.5 65.2222 49 55.722 69.75 55.2222C90.5 54.7223 91 55.2222 91 55.2222Z" stroke="#00923E" stroke-width="6" stroke-linejoin="round"/>
<path d="M48.3126 58C47.1459 52.3333 48.6126 40.8 63.8126 40C64.1459 44.1667 61.5126 53.6 48.3126 58Z" fill="#00923E" stroke="#00923E"/>
<path d="M47.5269 58C48.6935 52.3333 47.2269 40.8 32.0269 40C31.6935 44.1667 34.3269 53.6 47.5269 58Z" fill="#00923E" stroke="#00923E"/>
<path d="M48.1565 42C47.2726 37.5926 48.3838 28.6222 59.8993 28C60.1519 31.2407 58.1568 38.5778 48.1565 42Z" fill="#00923E" stroke="#00923E"/>
<path d="M47.6829 42C48.5668 37.5926 47.4556 28.6222 35.94 28C35.6875 31.2407 37.6825 38.5778 47.6829 42Z" fill="#00923E" stroke="#00923E"/>
<path d="M48.0973 29C47.4344 25.8519 48.2677 19.4444 56.9044 19C57.0938 21.3148 55.5975 26.5556 48.0973 29Z" fill="#00923E" stroke="#00923E"/>
<path d="M47.7421 29C48.405 25.8519 47.5716 19.4444 38.9349 19C38.7455 21.3148 40.2418 26.5556 47.7421 29Z" fill="#00923E" stroke="#00923E"/>
<path d="M48.1776 19C47.5147 15.8519 48.3481 9.44444 56.9847 9C57.1741 11.3148 55.6779 16.5556 48.1776 19Z" fill="#00923E" stroke="#00923E"/>
<path d="M47.8224 19C48.4853 15.8519 47.6519 9.44444 39.0153 9C38.8259 11.3148 40.3221 16.5556 47.8224 19Z" fill="#00923E" stroke="#00923E"/>
<path d="M48.0987 9.55562C47.7304 7.80665 48.1934 4.24697 52.9915 4.00006C53.0967 5.28607 52.2655 8.19759 48.0987 9.55562Z" fill="#00923E" stroke="#00923E"/>
<path d="M49.1317 8.37325C47.6011 7.45035 45.3125 4.68488 48.4029 1.00622C49.4155 1.80596 50.9788 4.39899 49.1317 8.37325Z" fill="#00923E" stroke="#00923E"/>
<path d="M47.9013 9.55562C48.2696 7.80665 47.8066 4.24697 43.0085 4.00006C42.9033 5.28607 43.7345 8.19759 47.9013 9.55562Z" fill="#00923E" stroke="#00923E"/>
<rect x="46" y="16" width="5" height="10" fill="#00923E"/>
</svg>
